<svg width="100" height="100" viewBox="0 0 100 100" fill="none" xmlns="http://www.w3.org/2000/svg">
<path d="M47 5H5V47H47V5Z" fill="currentColor"/>
<path d="M74 47C85.598 47 95 37.598 95 26C95 14.402 85.598 5 74 5C62.402 5 53 14.402 53 26C53 37.598 62.402 47 74 47Z" fill="currentColor"/>
<path d="M26 32C31.5695 32 36.911 34.2125 40.8492 38.1508C44.7875 42.089 47 47.4305 47 53C47 58.5695 44.7875 63.911 40.8492 67.8492C36.911 71.7875 31.5695 74 26 74L26 32Z" fill="currentColor"/>
<path d="M48 0H0V48H48V0Z" fill="currentColor"/>
<path d="M74 48C87.2548 48 98 37.2548 98 24C98 10.7452 87.2548 0 74 0C60.7452 0 50 10.7452 50 24C50 37.2548 60.7452 48 74 48Z" fill="currentColor"/>
<path d="M24 52C17.6348 52 11.5303 54.5286 7.02944 59.0294C2.52856 63.5303 0 69.6348 0 76C0 82.3652 2.52856 88.4697 7.02944 92.9706C11.5303 97.4714 17.6348 100 24 100V52Z" fill="currentColor"/>
<path d="M52 100L76 52L100 100H52Z" fill="currentColor"/>

</svg>
